<svg aria-hidden="true" style="position:absolute;width:0;height:0" xmlns="http://www.w3.org/2000/svg" overflow="hidden"><defs><symbol id="icon-linkedin" viewBox="0 0 32 32"><path d="M32 32h-6.4V20.802c0-3.072-1.355-4.786-3.786-4.786-2.645 0-4.214 1.786-4.214 4.786V32h-6.4V11.2h6.4v2.339s2.008-3.523 6.533-3.523c4.526 0 7.867 2.762 7.867 8.477V32zM3.907 7.873C1.749 7.873 0 6.11 0 3.935 0 1.762 1.749-.001 3.907-.001c2.157 0 3.906 1.763 3.906 3.936.002 2.174-1.749 3.938-3.906 3.938zM0 32h8V11.2H0V32z"/></symbol><symbol id="icon-pinterest" viewBox="0 0 32 32"><path d="M16.435 0C7.665 0 3 5.62 3 11.749c0 2.842 1.588 6.386 4.13 7.51.386.174.596.1.682-.258.076-.272.41-1.582.572-2.2a.566.566 0 00-.136-.556c-.844-.976-1.514-2.754-1.514-4.422 0-4.274 3.398-8.424 9.18-8.424 5 0 8.498 3.248 8.498 7.894 0 5.25-2.778 8.882-6.388 8.882-1.998 0-3.486-1.568-3.014-3.508.57-2.31 1.688-4.794 1.688-6.46 0-1.494-.844-2.73-2.568-2.73-2.034 0-3.684 2.014-3.684 4.718 0 1.718.608 2.878.608 2.878s-2.012 8.128-2.386 9.646c-.632 2.57.086 6.732.148 7.09.038.198.26.26.384.098.198-.26 2.63-3.73 3.312-6.238.248-.914 1.266-4.62 1.266-4.62.67 1.21 2.604 2.224 4.664 2.224 6.128 0 10.556-5.386 10.556-12.071C28.976 4.794 23.492-.001 16.434-.001z"/></symbol><symbol id="icon-behance" viewBox="0 0 32 32"><path d="M20.77 9.019h8.141V6.698H20.77v2.321zm4.012 4.661c-1.816 0-3.195 1.12-3.328 3.189h6.515c-.442-2.456-1.538-3.189-3.187-3.189zm.255 9.599c1.677 0 2.907-1.054 3.158-1.943h3.526c-1.008 3.213-3.09 5.017-6.827 5.017-4.77 0-7.446-3.377-7.446-7.858 0-10.553 15.296-10.931 14.528.985H21.454c.103 2.42 1.106 3.798 3.582 3.798zm-15.869-.465c1.925 0 3.272-.737 3.272-2.726 0-2.063-1.19-2.958-3.189-2.958H4.429v5.684h4.739zm-.254-8.786c1.602 0 2.707-.742 2.707-2.466 0-1.816-1.286-2.377-3.045-2.377H4.429v4.843h4.485zm.564-8.381c3.794 0 6.43 1.248 6.43 5.132 0 1.923-.776 3.356-2.736 4.322 2.509.742 3.696 2.69 3.696 5.25 0 4.063-3.237 6.002-7.109 6.002h-9.76V5.647h9.478z"/></symbol><symbol id="icon-facebook" viewBox="0 0 32 32"><path d="M19.138 32V17.6h4.708l.769-6.4h-5.477V8.083c0-1.648.045-3.283 2.525-3.283h2.512V.224c0-.069-2.158-.224-4.34-.224-4.559 0-7.413 2.652-7.413 7.52v3.68H7.385v6.4h5.037V32h6.716z"/></symbol><symbol id="icon-twitter" viewBox="0 0 32 32"><path d="M10.064 29c12.075 0 18.68-10.004 18.68-18.679 0-.285 0-.567-.019-.849A13.326 13.326 0 0032 6.074c-1.197.531-2.469.88-3.77 1.033a6.591 6.591 0 002.886-3.632 13.164 13.164 0 01-4.17 1.594 6.572 6.572 0 00-11.189 5.988A18.648 18.648 0 012.226 4.198 6.568 6.568 0 004.26 12.96a6.522 6.522 0 01-2.981-.82v.083a6.568 6.568 0 005.267 6.434 6.536 6.536 0 01-2.963.112 6.572 6.572 0 006.133 4.56 13.176 13.176 0 01-9.717 2.722 18.594 18.594 0 0010.064 2.944z"/></symbol><symbol id="icon-development" viewBox="0 0 32 32"><path fill="none" stroke="var(--color2, #4776e6)" stroke-linejoin="round" stroke-linecap="round" stroke-miterlimit="10" stroke-width=".842" d="M3 6v15c0 1.1.9 2 2 2h22c1.1 0 2-.9 2-2V6c0-1.1-.9-2-2-2H5c-1.1 0-2 .9-2 2zM3 19h26M9 29h14M13 23c0 2.1-.7 4.6-1.8 6M20.8 29c-1.1-1.4-1.8-3.9-1.8-6"/><path fill="none" stroke="var(--color2, #4776e6)" stroke-linejoin="round" stroke-linecap="round" stroke-miterlimit="10" stroke-width=".842" d="M7 9l3 3-3 3M13 15h4"/></symbol><symbol id="icon-app-design" viewBox="0 0 19 32"><path fill="var(--color2, #4776e6)" d="M18.334.95C17.701.316 16.951 0 16.084 0h-12.8c-.867 0-1.617.317-2.25.95S.084 2.333.084 3.2v25.6c0 .867.317 1.617.95 2.25s1.383.95 2.25.95h12.8c.867 0 1.617-.317 2.25-.95s.95-1.383.95-2.25V3.2c0-.867-.316-1.616-.95-2.25zM7.684 3.2h4c.267 0 .4.133.4.4s-.133.4-.4.4h-4c-.267 0-.4-.134-.4-.4s.133-.4.4-.4zm3.413 27.013c-.392.391-.863.587-1.413.587s-1.021-.196-1.412-.587c-.392-.392-.588-.863-.588-1.413s.196-1.021.588-1.413c.392-.391.863-.588 1.412-.588s1.021.197 1.413.588c.392.392.587.862.587 1.413s-.196 1.021-.587 1.413zm5.787-5.413c0 .216-.079.405-.238.563s-.346.237-.562.237h-12.8c-.217 0-.404-.079-.562-.237s-.237-.346-.237-.563V7.2c0-.217.079-.404.237-.562s.346-.238.562-.238h12.8c.217 0 .404.079.563.238s.237.346.237.562v17.6z"/></symbol><symbol id="icon-digital-marketing" viewBox="0 0 32 32"><path fill="var(--color2, #4776e6)" d="M12.961 7.473c-2.909 0-3.802.026-6.74.026-.346 0-.662.026-.95.078-.317.052-.605.13-.864.234-.288.104-.547.234-.806.391s-.49.339-.72.547-.432.417-.605.651c-.173.234-.317.469-.432.729s-.202.521-.259.781a4.315 4.315 0 00-.086.859v8.67c0 .312.029.599.086.859.058.286.144.547.259.781.115.26.259.495.432.729s.374.443.605.651c.23.208.49.391.749.547s.518.286.807.391c.288.104.576.182.864.234.317.052.634.078.95.078H9.88c.115 0 .23.026.317.078s.173.104.259.182c.288.338.576.677.893.989s.634.625 1.008.911c.346.286.691.573 1.095.833.374.26.778.521 1.152.755s.778.443 1.21.651c.403.208.835.391 1.267.573.058.026.115.026.144 0 .086-.052.115-.13.058-.208-.086-.13-.144-.234-.23-.364-.058-.13-.144-.234-.202-.365-.115-.26-.23-.495-.346-.755s-.23-.521-.317-.807c-.086-.26-.202-.521-.288-.781s-.173-.521-.259-.807c-.029-.078-.029-.156-.029-.234a.71.71 0 01.202-.469.759.759 0 01.518-.208h4.234c.346 0 .662-.026.95-.078s.576-.13.864-.234c.259-.104.547-.234.778-.391a3.73 3.73 0 00.749-.573c.23-.208.432-.417.605-.651s.317-.469.432-.729c.115-.26.202-.521.259-.781.058-.286.086-.573.086-.859v-1.771c0-.885 1.267-.885 1.498-.26v2.031c0 .391-.029.755-.115 1.12s-.202.703-.346 1.068c-.144.338-.346.651-.576.963s-.49.599-.806.859c-.288.286-.634.521-.95.729a9.668 9.668 0 01-1.037.521c-.374.13-.778.234-1.152.312a6.436 6.436 0 01-1.239.104h-3.053c-.086.026-.144.104-.115.182.058.156.115.338.173.521.086.234.202.495.317.729s.202.469.317.677v.026c.115.234.23.443.374.677.144.208.317.443.49.651s.374.417.605.651c.23.208.461.443.749.625.144.13.23.286.259.469a.736.736 0 01-.173.469.548.548 0 01-.346.182 1.048 1.048 0 01-.403 0c-.547-.13-1.095-.286-1.613-.443s-1.037-.338-1.527-.547c-.49-.182-.979-.417-1.44-.625-.461-.234-.922-.469-1.354-.729s-.864-.521-1.267-.807a19.683 19.683 0 01-1.181-.911 9.166 9.166 0 01-.922-.859c-.288-.286-.605-.599-.864-.911a.161.161 0 00-.144-.078H6.222c-.432 0-.835-.026-1.239-.104s-.778-.182-1.152-.312c-.374-.13-.72-.312-1.066-.521s-.662-.443-.95-.703a7.291 7.291 0 01-.806-.859c-.23-.312-.432-.625-.576-.963s-.259-.677-.346-1.042a5.961 5.961 0 01-.086-1.068v-8.723c0-.391.029-.755.115-1.12s.202-.703.346-1.041.346-.651.576-.963c.23-.312.49-.599.806-.859.317-.286.634-.521.95-.729a9.668 9.668 0 011.037-.521c.374-.13.778-.234 1.181-.312s.806-.104 1.239-.104h7.057c.72.182.749 1.406-.346 1.406zm3.773 1.354c-.144.26-.173.625-.144.963l.086.469c.058.156.115.338.173.495l.259.469c.086.13.202.286.317.391.288.286.605.521.979.599.662.182 1.815-.338 2.419-.521.115-.026.259-.026.346.026.115.052.202.13.259.234 0 .026 0 .026.029.052.029.104.086.208.115.312.288.781.547 1.536.864 2.135.029.052.058.13.086.182v.026c.086.182.202.364.317.547s.202.312.317.417c.058.052.144.104.23.104s.202-.052.374-.182c.058-.078.144-.13.23-.208l.259-.234c.317-.26.778-.651.95-.859l-.086-.026c-.979-.286-.922-.755-.864-1.172a.659.659 0 000-.338c0-.026-.029 0-.086-.052-.029-.026-.058-.026-.086-.052a1.216 1.216 0 01-.317-.338c-.086-.156-.115-.312-.144-.469s0-.338.029-.495c.029-.208.086-.391.144-.547.029-.078.058-.13.115-.182s.144-.078.23-.104c2.016-.417 3.053-.078 4.032.234.144.052.317.104.461.156-.432-.391-.806-.833-1.181-1.328a14.53 14.53 0 01-1.555-2.526 15.46 15.46 0 01-1.066-2.656c-.173-.599-.317-1.198-.374-1.718a12.66 12.66 0 01-1.901 2.317c-.806.677-5.501 3.229-5.818 3.88zm12.04-2.005c.029.338-.086.807-.288 1.198-.144.286-.317.521-.49.651.374.521.806 1.015 1.239 1.432s.864.755 1.325 1.015H30.647c.029 0 .058 0 .086-.026.029 0 .058-.026.058-.026a.578.578 0 00.173-.312c.058-.156.086-.312.086-.495.029-.573-.086-1.276-.317-2.057-.259-.859-.662-1.797-1.123-2.708a18.61 18.61 0 00-1.555-2.5c-.518-.703-1.066-1.302-1.555-1.692-.173-.156-.374-.26-.518-.338S25.723.86 25.608.86h-.029c-.029.026-.058.052-.086.104-.173.391-.173 1.015-.058 1.771s.374 1.614.72 2.5c.086-.026.144-.026.259-.026.317-.026.72 0 1.123.13s.806.364 1.037.755c.086.182.173.417.202.729zm1.757 5.181h-.115c-.029 0-.086 0-.115-.026l-.144-.026c-.346-.026-.72-.104-1.095-.156h-.029a6.592 6.592 0 01-1.095-.312c-.806-.286-1.671-.599-3.312-.286-.029.078-.029.13-.029.208s-.029.182 0 .26c0 .052.029.104.029.156 0 .026.029.052.029.052l.029.026c.23.156.346.234.432.443.086.182.058.365.058.547-.029.182-.029.364.202.443.288.078.576.182.749.521.029.026.029.078.058.104v.104c-.058.495-.864 1.198-1.325 1.588l-.23.208-.029.026-.173.156v.104c-.374.338-.749.469-1.066.469-.346 0-.634-.156-.893-.391-.173-.156-.317-.364-.461-.573-.115-.208-.23-.417-.346-.651-.029-.052-.058-.13-.086-.182a15.744 15.744 0 01-.864-2.135c-.835.312-1.613.651-2.563.391-.547-.156-1.008-.469-1.411-.859-.144-.156-.288-.338-.403-.521s-.23-.365-.317-.573-.173-.391-.23-.599c-.058-.208-.115-.417-.115-.625-.058-.521 0-1.015.202-1.432.605-1.198 4.58-2.76 6.135-4.322 1.037-1.068 1.642-2.057 2.074-2.786v-.026c.259-.417.461-.755.662-.989l.173-.156c.058-.052.115-.078.202-.13.086 0 .144-.026.23-.052h.259c.23.026.461.078.72.182s.49.26.749.469c.547.443 1.152 1.068 1.728 1.823.605.781 1.152 1.692 1.642 2.63.49.963.922 1.953 1.21 2.89.259.859.374 1.64.346 2.291-.029.286-.086.521-.173.755s-.202.417-.374.599l-.029.026-.029.052c-.115.078-.23.13-.346.182s-.23.078-.317.078h-.115l-.086.026zm-11.607 8.853c.374 0 .691-.286.691-.625s-.317-.625-.691-.625l-7.402-.104-1.411-.078c-.374-.026-.72.234-.749.599-.029.338.259.651.662.677l1.411.078c.029-.026 6.855.052 7.489.078zm-2.218-3.958c.374 0 .691-.286.691-.625s-.317-.625-.691-.625H6.711c-.374 0-.691.286-.691.625s.317.625.691.625h9.995zm-3.111-3.775c.374 0 .691-.286.691-.625s-.317-.625-.691-.625H6.711c-.374 0-.691.286-.691.625s.317.625.691.625h6.884z"/></symbol><symbol id="icon-web-design" viewBox="0 0 32 32"><path fill="var(--color2, #4776e6)" d="M31.292 16.756h-.921c-.173-5.671-3.416-10.413-8.25-12.528h6.039v.921a.552.552 0 00.944.391.552.552 0 00.162-.391V2.201a.552.552 0 00-.944-.391.552.552 0 00-.162.391v.921h-9.949v-.921a.552.552 0 00-.553-.553H14.71a.552.552 0 00-.553.553v.921H4.208v-.921a.552.552 0 00-.944-.391.552.552 0 00-.162.391v2.948a.552.552 0 00.944.391.552.552 0 00.162-.391v-.921h6.021a14.145 14.145 0 00-8.6 12.897H.708a.552.552 0 00-.553.553v2.948a.552.552 0 00.553.553h2.948a.552.552 0 00.553-.553v-2.948a.552.552 0 00-.553-.553h-.921A13.107 13.107 0 0114.158 4.279v.87a.552.552 0 00.553.553h.951L9.925 20.261a.546.546 0 000 .394l2.056 5.597-.033 3.582a.539.539 0 00.161.394.549.549 0 00.392.163h7.001a.552.552 0 00.553-.553v-3.567l2.509-5.583a.549.549 0 000-.432L16.709 5.701h.951a.552.552 0 00.553-.553v-.87c6.264.859 10.83 6.006 11.055 12.477h-.921a.552.552 0 00-.553.553v2.948a.552.552 0 00.553.553h2.948a.552.552 0 00.553-.553v-2.948a.552.552 0 00-.553-.553zM3.103 20.073H1.261v-1.842h1.842v1.842zm9.949 9.212l.022-2.579h5.874v2.579h-5.896zm6.091-3.685h-6.227l-1.887-5.129 4.602-11.677v9.99a.552.552 0 00.944.391.552.552 0 00.162-.391V8.739l4.72 11.703-2.314 5.159zM17.105 4.596h-1.842V2.754h1.842v1.842zm13.634 15.108h-1.842v-1.842h1.842v1.842z"/></symbol><symbol id="icon-menu" viewBox="0 0 32 32"><path stroke-linejoin="round" stroke-linecap="round" stroke-width="2.667" d="M4 16h24M4 8h24M4 24h24"/></symbol><symbol id="icon-search-icon" viewBox="0 0 32 32"><path stroke-linejoin="round" stroke-linecap="round" stroke-width="3.2" d="M14.4 27.2c7.069 0 12.8-5.731 12.8-12.8S21.469 1.6 14.4 1.6C7.331 1.6 1.6 7.331 1.6 14.4s5.731 12.8 12.8 12.8zM30.4 30.4l-6.96-6.96"/></symbol><symbol id="icon-arrow" viewBox="0 0 32 32"><path fill="none" stroke="var(--color1, )" stroke-linejoin="round" stroke-linecap="round" stroke-width="4.571" d="M2.667 16h26.667M16 2.667L29.333 16 16 29.333"/></symbol><symbol id="icon-close" viewBox="0 0 20 20"><path d="M10 8.586L2.929 1.515 1.515 2.929 8.586 10l-7.071 7.071 1.414 1.414L10 11.414l7.071 7.071 1.414-1.414L11.414 10l7.071-7.071-1.414-1.414L10 8.586z"/></symbol></defs></svg>